<?xml version="1.0" standalone="no"?>
<!DOCTYPE svg PUBLIC "-//W3C//DTD SVG 20010904//EN"
 "http://www.w3.org/TR/2001/REC-SVG-20010904/DTD/svg10.dtd">
<svg version="1.0" xmlns="http://www.w3.org/2000/svg"
 width="1267.000000pt" height="1268.000000pt" viewBox="0 0 1267.000000 1268.000000"
 preserveAspectRatio="xMidYMid meet">
<metadata>
Created by potrace 1.16, written by Peter Selinger 2001-2019
</metadata>
<g transform="translate(0.000000,1268.000000) scale(0.100000,-0.100000)"
fill="#000000" stroke="none">
<path d="M5754 12595 c-5 -12 -29 -15 -124 -15 -69 0 -121 -4 -125 -10 -3 -5
-44 -10 -90 -10 -46 0 -86 -4 -89 -9 -3 -5 -37 -12 -76 -16 -39 -4 -73 -11
-76 -16 -3 -5 -29 -9 -59 -9 -30 0 -56 -4 -59 -9 -3 -5 -33 -12 -66 -16 -33
-4 -63 -11 -66 -16 -3 -5 -25 -9 -49 -9 -24 0 -47 -4 -50 -10 -3 -5 -28 -12
-55 -16 -28 -4 -50 -10 -50 -15 0 -5 -18 -9 -39 -9 -22 0 -42 -4 -45 -9 -4 -5
-24 -12 -46 -16 -22 -4 -42 -11 -46 -16 -3 -5 -20 -9 -38 -9 -19 0 -47 -7 -62
-15 -16 -8 -37 -15 -46 -15 -9 0 -20 -4 -23 -10 -3 -5 -17 -10 -29 -10 -13 0
-37 -7 -52 -15 -16 -8 -37 -15 -46 -15 -9 0 -20 -4 -23 -10 -3 -5 -15 -10 -26
-10 -10 0 -42 -11 -71 -25 -28 -14 -60 -25 -69 -25 -10 0 -30 -6 -46 -14 -15
-8 -39 -19 -53 -24 -88 -36 -110 -47 -110 -54 0 -4 -9 -8 -20 -8 -25 0 -202
-78 -208 -92 -2 -5 -15 -8 -28 -8 -13 0 -24 -4 -24 -10 0 -5 -11 -12 -25 -16
-14 -3 -25 -10 -25 -15 0 -5 -11 -9 -25 -9 -14 0 -25 -4 -25 -10 0 -5 -11 -12
-25 -16 -14 -3 -25 -10 -25 -15 0 -5 -6 -9 -14 -9 -17 0 -80 -32 -84 -42 -2
-5 -12 -8 -22 -8 -9 0 -23 -7 -30 -15 -7 -8 -19 -15 -26 -15 -8 0 -14 -4 -14
-10 0 -5 -7 -10 -15 -10 -8 0 -15 -4 -15 -9 0 -5 -11 -12 -25 -15 -14 -4 -25
-11 -25 -16 0 -6 -9 -10 -19 -10 -11 0 -23 -4 -26 -10 -3 -5 -23 -17 -43 -27
-20 -9 -43 -23 -50 -30 -7 -7 -16 -13 -20 -13 -4 0 -20 -11 -36 -25 -16 -14
-35 -25 -43 -25 -7 0 -13 -4 -13 -10 0 -5 -7 -10 -15 -10 -8 0 -15 -4 -15 -9
0 -5 -10 -13 -22 -17 -12 -3 -33 -17 -47 -30 -14 -13 -31 -24 -38 -24 -7 0
-13 -4 -13 -10 0 -5 -7 -10 -15 -10 -8 0 -15 -4 -15 -9 0 -5 -8 -12 -17 -15
-10 -3 -36 -21 -58 -41 -22 -19 -45 -35 -52 -35 -6 0 -20 -11 -30 -24 -10 -13
-29 -26 -41 -30 -12 -4 -22 -12 -22 -17 0 -5 -5 -9 -11 -9 -6 0 -26 -16 -45
-35 -18 -19 -37 -35 -41 -35 -5 0 -20 -11 -35 -25 -15 -14 -31 -25 -36 -25 -5
0 -15 -11 -22 -25 -7 -14 -17 -25 -22 -25 -14 0 -74 -48 -134 -105 -29 -27
-78 -72 -110 -100 -75 -64 -286 -275 -344 -344 -25 -30 -69 -78 -98 -108 -28
-29 -52 -55 -52 -58 0 -2 -11 -16 -25 -31 -14 -15 -25 -33 -25 -40 0 -8 -7
-14 -15 -14 -8 0 -15 -3 -15 -7 0 -5 -16 -26 -35 -47 -19 -22 -35 -44 -35 -48
0 -5 -11 -19 -25 -32 -14 -13 -25 -28 -25 -35 0 -6 -7 -11 -15 -11 -8 0 -15
-7 -15 -15 0 -8 -4 -15 -10 -15 -5 0 -10 -9 -10 -20 0 -11 -7 -20 -15 -20 -8
0 -15 -7 -15 -15 0 -8 -4 -15 -10 -15 -5 0 -10 -5 -10 -11 0 -6 -6 -17 -12
-24 -30 -33 -38 -45 -38 -55 0 -5 -4 -10 -10 -10 -5 0 -17 -16 -26 -35 -9 -19
-20 -35 -25 -35 -4 0 -16 -16 -25 -36 -9 -20 -23 -38 -31 -41 -7 -3 -13 -14
-13 -24 0 -10 -4 -19 -10 -19 -5 0 -10 -6 -10 -14 0 -8 -7 -16 -15 -20 -8 -3
-15 -15 -15 -26 0 -11 -4 -20 -10 -20 -5 0 -10 -7 -10 -15 0 -8 -4 -15 -10
-15 -5 0 -16 -16 -25 -35 -9 -19 -23 -39 -31 -46 -8 -6 -14 -18 -14 -25 0 -8
-4 -14 -10 -14 -5 0 -10 -11 -10 -24 0 -13 -7 -26 -15 -30 -8 -3 -15 -15 -15
-26 0 -11 -4 -20 -10 -20 -5 0 -10 -7 -10 -15 0 -8 -4 -15 -10 -15 -5 0 -12
-11 -16 -25 -3 -14 -10 -25 -15 -25 -5 0 -9 -9 -9 -20 0 -11 -7 -23 -15 -26
-8 -4 -15 -14 -15 -24 0 -11 -4 -22 -10 -25 -5 -3 -10 -14 -10 -25 0 -10 -7
-20 -15 -24 -8 -3 -15 -14 -15 -25 0 -11 -5 -23 -10 -26 -6 -3 -10 -14 -10
-25 0 -10 -7 -20 -15 -24 -8 -3 -15 -14 -15 -25 0 -11 -4 -23 -10 -26 -5 -3
-10 -14 -10 -25 0 -10 -7 -20 -15 -24 -8 -3 -15 -12 -15 -21 0 -14 -9 -35 -32
-75 -4 -8 -11 -22 -14 -30 -3 -8 -10 -23 -15 -32 -5 -10 -9 -29 -9 -43 0 -16
-6 -25 -15 -25 -9 0 -15 -9 -15 -25 0 -14 -4 -25 -10 -25 -5 0 -10 -12 -10
-26 0 -14 -7 -32 -15 -40 -8 -9 -15 -26 -15 -40 0 -13 -4 -24 -10 -24 -5 0
-10 -16 -10 -35 0 -24 -5 -35 -15 -35 -9 0 -15 -9 -15 -24 0 -14 -4 -28 -10
-31 -5 -3 -10 -21 -10 -40 0 -20 -6 -35 -15 -39 -9 -3 -15 -18 -15 -36 0 -16
-4 -30 -10 -30 -5 0 -10 -18 -10 -39 0 -25 -5 -41 -15 -45 -9 -3 -15 -18 -15
-35 0 -16 -4 -33 -10 -36 -5 -3 -10 -24 -10 -46 0 -26 -5 -42 -15 -45 -10 -4
-15 -20 -15 -45 0 -21 -4 -39 -10 -39 -5 0 -10 -20 -10 -45 0 -31 -5 -47 -15
-51 -11 -4 -15 -21 -15 -55 0 -27 -4 -49 -10 -49 -5 0 -10 -22 -10 -49 0 -34
-4 -51 -15 -55 -11 -4 -15 -21 -15 -61 0 -30 -4 -55 -10 -55 -6 0 -10 -28 -10
-64 0 -48 -4 -65 -15 -70 -11 -4 -15 -22 -15 -76 0 -40 -4 -70 -10 -70 -6 0
-10 -35 -10 -84 0 -62 -4 -87 -15 -96 -12 -10 -15 -37 -15 -126 0 -69 -4 -114
-10 -114 -7 0 -10 -195 -10 -565 0 -370 3 -565 10 -565 6 0 10 -45 10 -114 0
-89 3 -116 15 -126 11 -9 15 -34 15 -96 0 -49 4 -84 10 -84 6 0 10 -30 10 -70
0 -54 4 -72 15 -76 11 -5 15 -22 15 -70 0 -36 4 -64 10 -64 6 0 10 -25 10 -55
0 -40 4 -57 15 -61 11 -4 15 -21 15 -55 0 -27 5 -49 10 -49 6 0 10 -22 10 -49
0 -34 4 -51 15 -55 10 -4 15 -20 15 -51 0 -25 5 -45 10 -45 6 0 10 -18 10 -40
0 -29 4 -40 15 -40 11 0 15 -12 15 -44 0 -25 5 -48 10 -51 6 -3 10 -20 10 -36
0 -17 6 -32 15 -35 10 -4 15 -20 15 -45 0 -21 5 -39 10 -39 6 0 10 -14 10 -30
0 -18 6 -33 15 -36 9 -4 15 -19 15 -39 0 -19 4 -37 10 -40 5 -3 10 -17 10 -31
0 -15 6 -24 15 -24 10 0 15 -11 15 -35 0 -19 5 -35 10 -35 6 0 10 -11 10 -24
0 -13 7 -29 15 -36 8 -7 15 -25 15 -41 0 -16 5 -29 10 -29 6 0 10 -11 10 -25
0 -16 6 -25 15 -25 9 0 15 -9 15 -25 0 -23 7 -41 32 -85 4 -8 11 -22 14 -30 3
-8 10 -23 15 -32 5 -10 9 -25 9 -33 0 -9 7 -18 15 -21 8 -4 15 -14 15 -24 0
-11 4 -22 10 -25 5 -3 10 -15 10 -26 0 -11 7 -22 15 -25 8 -4 15 -14 15 -24 0
-11 4 -22 10 -25 5 -3 10 -15 10 -26 0 -11 7 -22 15 -25 8 -4 15 -14 15 -24 0
-11 4 -22 10 -25 5 -3 10 -14 10 -25 0 -10 7 -20 15 -24 8 -3 15 -15 15 -26 0
-11 4 -20 9 -20 5 0 12 -11 15 -25 4 -14 11 -25 16 -25 6 0 10 -7 10 -15 0 -8
5 -15 10 -15 6 0 10 -9 10 -20 0 -11 7 -23 15 -26 8 -4 15 -17 15 -30 0 -13 5
-24 10 -24 6 0 10 -7 10 -15 0 -7 6 -18 13 -22 7 -4 21 -25 31 -46 9 -20 21
-37 26 -37 6 0 10 -7 10 -15 0 -8 5 -15 10 -15 6 0 10 -9 10 -20 0 -11 7 -23
15 -26 8 -4 15 -12 15 -20 0 -8 5 -14 10 -14 6 0 10 -9 10 -19 0 -10 6 -21 13
-24 8 -3 22 -21 31 -41 9 -20 21 -36 25 -36 5 0 16 -16 25 -35 9 -19 21 -35
26 -35 6 0 10 -5 10 -10 0 -6 11 -23 25 -38 14 -15 25 -32 25 -39 0 -7 5 -13
10 -13 6 0 10 -7 10 -15 0 -8 6 -15 13 -15 7 0 19 -16 27 -35 8 -19 20 -35 27
-35 7 0 13 -5 13 -11 0 -7 11 -22 25 -35 14 -13 25 -27 25 -32 0 -4 16 -26 35
-48 19 -21 35 -42 35 -46 0 -5 7 -8 15 -8 8 0 15 -6 15 -14 0 -7 11 -25 25
-40 14 -15 25 -29 25 -32 0 -2 21 -26 47 -52 27 -26 73 -77 103 -112 72 -85
235 -248 335 -335 43 -39 94 -85 111 -102 18 -18 34 -33 37 -33 2 0 23 -18 47
-40 24 -22 49 -40 55 -40 6 0 18 -11 25 -25 7 -14 17 -25 22 -25 5 0 21 -11
36 -25 15 -14 30 -25 35 -25 4 0 23 -16 41 -35 19 -19 39 -35 45 -35 6 0 11
-4 11 -9 0 -5 10 -13 22 -17 12 -4 31 -17 41 -30 10 -13 24 -24 30 -24 7 0 30
-16 52 -35 22 -20 48 -38 58 -41 9 -3 17 -10 17 -15 0 -5 7 -9 15 -9 8 0 15
-4 15 -10 0 -5 6 -10 13 -10 7 0 24 -11 38 -24 14 -13 35 -27 47 -30 12 -4 22
-12 22 -17 0 -5 7 -9 15 -9 8 0 15 -4 15 -10 0 -5 6 -10 13 -10 8 0 27 -11 43
-25 16 -14 34 -25 41 -25 7 0 16 -6 20 -13 4 -7 25 -21 45 -30 20 -10 40 -22
43 -27 3 -6 15 -10 26 -10 10 0 19 -4 19 -9 0 -5 11 -12 25 -15 14 -4 25 -11
25 -16 0 -6 5 -10 12 -10 6 0 26 -11 44 -25 18 -14 39 -25 47 -25 9 0 17 -3
19 -7 4 -11 67 -43 84 -43 8 0 14 -4 14 -9 0 -5 11 -12 25 -15 14 -4 25 -11
25 -16 0 -6 11 -10 25 -10 14 0 25 -4 25 -9 0 -5 11 -12 25 -15 14 -4 25 -11
25 -16 0 -6 11 -10 24 -10 13 0 26 -3 28 -7 1 -5 19 -15 38 -24 19 -9 60 -28
90 -43 30 -14 65 -26 77 -26 12 0 23 -3 25 -7 4 -11 67 -43 83 -43 8 0 35 -11
61 -25 26 -14 59 -25 75 -25 15 0 29 -3 31 -7 5 -12 76 -43 98 -43 10 0 22 -5
25 -10 3 -6 14 -10 23 -10 9 0 30 -7 46 -15 15 -8 38 -15 50 -15 13 0 26 -3
29 -6 13 -14 113 -43 145 -44 17 0 32 -4 32 -9 0 -5 18 -12 40 -16 22 -4 42
-11 46 -16 3 -5 23 -9 45 -9 21 0 39 -4 39 -9 0 -5 22 -11 50 -15 27 -4 52
-11 55 -16 3 -6 26 -10 50 -10 24 0 46 -4 49 -9 3 -5 33 -12 66 -16 33 -4 63
-11 66 -16 3 -5 29 -9 59 -9 30 0 56 -4 59 -9 3 -4 38 -11 77 -14 40 -3 77
-11 83 -17 5 -5 45 -10 87 -10 43 0 80 -4 83 -9 3 -5 60 -12 126 -16 66 -4
123 -11 126 -16 3 -5 245 -9 554 -9 309 0 551 4 554 9 3 5 60 12 126 16 66 4
123 11 126 16 3 5 40 9 83 9 42 0 82 5 87 10 6 6 43 14 83 17 39 3 74 10 77
14 3 5 29 9 59 9 30 0 56 4 59 9 3 5 33 12 66 16 33 4 60 11 60 16 0 5 22 9
49 9 28 0 53 4 56 10 3 5 28 12 55 16 28 4 50 10 50 15 0 5 17 9 39 9 21 0 52
7 67 15 16 8 37 15 47 15 9 0 17 5 17 10 0 6 17 10 39 10 21 0 52 7 67 15 16
8 37 15 46 15 9 0 20 5 23 10 3 6 17 10 29 10 13 0 37 7 52 15 16 8 37 15 46
15 9 0 20 5 23 10 3 6 17 10 30 10 24 0 87 29 93 43 2 4 16 7 31 7 16 0 49 11
75 25 26 14 58 25 72 25 13 0 24 4 24 10 0 5 11 12 25 16 14 3 25 10 25 15 0
5 12 9 28 9 15 0 36 7 46 15 11 8 28 15 38 15 10 0 18 5 18 10 0 6 6 10 14 10
17 0 80 32 84 43 2 4 15 7 28 7 13 0 24 4 24 10 0 5 11 12 25 16 14 3 25 10
25 15 0 5 11 9 25 9 14 0 25 4 25 10 0 5 11 12 25 16 14 3 25 10 25 15 0 5 6
9 14 9 17 0 80 32 84 43 2 4 12 7 22 7 9 0 23 7 30 15 7 8 19 15 26 15 8 0 14
5 14 10 0 6 7 10 15 10 8 0 15 4 15 9 0 5 11 12 25 15 14 4 25 11 25 16 0 6 7
10 15 10 9 0 33 11 55 25 22 14 44 25 50 25 5 0 10 4 10 9 0 5 8 12 18 15 9 3
30 17 46 31 16 14 35 25 43 25 7 0 13 5 13 10 0 6 7 10 15 10 8 0 15 4 15 10
0 5 11 12 25 16 14 3 25 9 25 14 0 4 16 15 35 26 19 10 35 22 35 26 0 5 7 8
15 8 8 0 15 4 15 9 0 5 8 12 18 15 15 5 34 19 89 66 7 5 17 10 22 10 5 0 18
10 28 22 19 23 44 42 73 55 8 4 30 22 47 40 18 18 37 33 42 33 6 0 21 11 35
25 14 14 29 25 34 25 5 0 15 11 22 25 7 14 17 25 22 25 14 0 76 49 128 100 25
25 77 72 116 105 86 74 288 277 340 341 22 27 65 74 97 106 31 32 57 60 57 62
0 3 11 17 25 32 14 15 25 33 25 40 0 8 7 14 15 14 8 0 15 3 15 8 0 4 16 25 35
46 19 22 35 44 35 48 0 5 11 19 25 32 14 13 25 26 25 29 0 3 11 18 25 33 14
15 25 33 25 40 0 8 7 14 15 14 8 0 15 7 15 15 0 8 5 15 10 15 6 0 10 5 10 11
0 6 6 17 13 24 29 33 37 45 37 55 0 5 4 10 10 10 5 0 17 16 26 35 9 19 20 35
25 35 4 0 16 16 25 36 9 20 23 38 31 41 7 3 13 14 13 24 0 10 5 19 10 19 6 0
10 6 10 14 0 8 7 16 15 20 8 3 15 15 15 26 0 11 5 20 10 20 6 0 10 7 10 15 0
8 4 15 10 15 5 0 17 17 27 38 9 20 20 39 23 42 13 12 40 60 40 74 0 7 7 16 15
20 8 3 15 15 15 26 0 11 3 20 8 20 7 0 25 30 38 62 3 10 10 18 15 18 5 0 9 9
9 20 0 11 7 23 15 26 8 4 15 14 15 24 0 11 5 22 10 25 6 3 10 15 10 26 0 11 7
22 15 25 8 4 15 14 15 24 0 11 5 22 10 25 6 3 10 14 10 25 0 10 7 20 15 24 8
3 15 14 15 25 0 11 4 23 10 26 6 3 10 14 10 25 0 10 7 20 15 24 8 3 15 12 15
21 0 14 9 35 32 75 4 8 11 22 14 30 3 8 10 23 15 32 5 10 9 27 9 38 0 11 7 23
15 26 8 4 15 17 15 30 0 13 5 24 10 24 6 0 10 13 10 29 0 16 7 34 15 41 8 7
15 23 15 36 0 13 5 24 10 24 6 0 10 14 10 30 0 18 6 33 15 36 9 4 15 19 15 35
0 16 5 29 10 29 6 0 10 13 10 29 0 16 7 34 15 41 8 7 15 25 15 41 0 16 5 29
10 29 6 0 10 15 10 34 0 18 7 39 15 46 8 7 15 25 15 41 0 15 5 31 10 34 6 3
10 21 10 40 0 18 7 40 15 49 8 8 15 31 15 50 0 20 5 36 10 36 6 0 10 20 10 44
0 26 6 48 15 56 9 8 15 30 15 56 0 24 5 44 10 44 6 0 10 19 10 43 0 23 7 51
15 61 9 11 15 41 15 68 0 26 5 48 10 48 6 0 10 26 10 59 0 40 5 63 15 71 11 9
15 32 15 81 0 39 4 69 10 69 6 0 10 35 10 84 0 62 4 87 15 96 12 10 15 37 15
126 0 69 4 114 10 114 7 0 10 195 10 565 0 370 -3 565 -10 565 -6 0 -10 45
-10 114 0 89 -3 116 -15 126 -11 9 -15 34 -15 96 0 49 -4 84 -10 84 -6 0 -10
30 -10 69 0 49 -4 72 -15 81 -10 8 -15 31 -15 71 0 33 -4 59 -10 59 -5 0 -10
22 -10 48 0 27 -6 57 -15 68 -8 10 -15 38 -15 62 0 23 -4 42 -10 42 -5 0 -10
22 -10 49 0 34 -4 51 -15 55 -10 4 -15 20 -15 51 0 25 -4 45 -10 45 -5 0 -10
16 -10 36 0 19 -7 42 -15 50 -8 9 -15 31 -15 50 0 19 -4 34 -10 34 -5 0 -10
15 -10 34 0 18 -7 39 -15 46 -8 7 -15 28 -15 46 0 19 -4 34 -10 34 -5 0 -10
13 -10 29 0 16 -7 34 -15 41 -8 7 -15 25 -15 41 0 16 -4 29 -10 29 -5 0 -10
13 -10 29 0 16 -6 31 -15 35 -9 3 -15 18 -15 36 0 16 -4 30 -10 30 -5 0 -10
10 -10 23 0 13 -7 32 -15 43 -8 10 -15 29 -15 42 0 12 -4 22 -10 22 -5 0 -10
11 -10 24 0 13 -7 26 -15 30 -8 3 -15 15 -15 26 0 18 -8 38 -32 80 -4 8 -11
22 -14 30 -3 8 -10 23 -15 32 -5 10 -9 25 -9 33 0 9 -7 18 -15 21 -8 4 -15 14
-15 24 0 11 -4 22 -10 25 -5 3 -10 15 -10 26 0 11 -7 22 -15 25 -8 4 -15 14
-15 24 0 11 -4 22 -10 25 -5 3 -10 14 -10 25 0 10 -7 20 -15 24 -8 3 -15 14
-15 25 0 11 -4 23 -10 26 -5 3 -10 14 -10 25 0 10 -7 20 -15 24 -8 3 -15 15
-15 26 0 11 -4 20 -9 20 -5 0 -12 11 -15 25 -4 14 -11 25 -16 25 -6 0 -10 7
-10 15 0 8 -4 15 -10 15 -5 0 -10 9 -10 20 0 11 -7 23 -15 26 -8 4 -15 17 -15
30 0 13 -4 24 -10 24 -5 0 -10 7 -10 15 0 7 -6 18 -13 22 -7 4 -21 25 -31 46
-9 20 -21 37 -26 37 -6 0 -10 7 -10 15 0 8 -4 15 -10 15 -5 0 -10 9 -10 20 0
11 -7 23 -15 26 -8 4 -15 12 -15 20 0 8 -4 14 -10 14 -5 0 -10 9 -10 19 0 10
-6 21 -13 24 -8 3 -22 21 -31 41 -9 20 -21 36 -25 36 -5 0 -16 16 -25 35 -9
19 -21 35 -26 35 -6 0 -10 5 -10 11 0 6 -6 17 -12 24 -30 33 -38 45 -38 55 0
5 -4 10 -10 10 -5 0 -10 7 -10 15 0 8 -7 15 -15 15 -8 0 -15 9 -15 20 0 11 -4
20 -10 20 -5 0 -10 7 -10 15 0 8 -7 15 -15 15 -8 0 -15 5 -15 11 0 7 -11 22
-25 35 -14 13 -25 28 -25 34 0 6 -12 24 -27 39 -16 16 -41 45 -58 66 -16 21
-38 46 -47 56 -10 11 -18 21 -18 24 0 3 -28 34 -62 69 -35 35 -74 79 -88 97
-33 44 -281 292 -349 349 -29 25 -79 70 -111 100 -73 69 -111 100 -125 100 -7
0 -18 11 -25 25 -7 14 -18 25 -24 25 -6 0 -20 11 -30 25 -10 14 -25 25 -33 25
-7 0 -29 16 -47 35 -19 19 -39 35 -45 35 -6 0 -11 4 -11 9 0 5 -10 13 -22 17
-13 4 -29 15 -35 25 -7 9 -30 28 -50 40 -21 13 -47 31 -57 41 -11 10 -28 20
-38 24 -10 3 -18 10 -18 15 0 5 -7 9 -15 9 -8 0 -15 3 -15 8 0 4 -16 16 -35
26 -19 11 -35 22 -35 26 0 5 -11 11 -25 14 -14 4 -25 11 -25 16 0 6 -7 10 -15
10 -8 0 -15 5 -15 10 0 6 -6 10 -13 10 -8 0 -27 11 -43 25 -16 14 -37 28 -46
31 -10 3 -18 10 -18 15 0 5 -5 9 -10 9 -6 0 -28 11 -50 25 -22 14 -46 25 -55
25 -8 0 -15 4 -15 9 0 5 -10 13 -22 17 -12 3 -31 15 -42 25 -11 11 -25 19 -32
19 -6 0 -17 7 -24 15 -7 8 -21 15 -30 15 -10 0 -20 3 -22 8 -4 10 -67 42 -84
42 -8 0 -14 4 -14 9 0 5 -11 12 -25 15 -14 4 -25 11 -25 16 0 6 -11 10 -25 10
-14 0 -25 4 -25 9 0 5 -11 12 -25 15 -14 4 -25 11 -25 16 0 6 -11 10 -24 10
-13 0 -26 3 -28 8 -4 10 -67 42 -84 42 -8 0 -14 5 -14 10 0 6 -8 10 -18 10
-10 0 -27 7 -38 15 -10 8 -31 15 -46 15 -16 0 -28 4 -28 10 0 5 -11 12 -25 16
-14 3 -25 10 -25 15 0 5 -13 9 -30 9 -16 0 -30 5 -30 10 0 6 -8 10 -18 10 -10
0 -27 7 -38 15 -10 8 -33 15 -51 15 -17 0 -33 3 -35 8 -6 13 -69 42 -93 42
-13 0 -27 5 -30 10 -3 6 -14 10 -23 10 -9 0 -30 7 -46 15 -15 8 -39 15 -52 15
-12 0 -26 5 -29 10 -3 6 -14 10 -23 10 -9 0 -30 7 -46 15 -15 8 -43 15 -62 15
-18 0 -36 5 -39 10 -3 6 -14 10 -23 10 -9 0 -30 7 -46 15 -15 8 -46 15 -67 15
-22 0 -39 4 -39 9 0 5 -22 11 -50 15 -27 4 -52 11 -55 16 -3 6 -26 10 -50 10
-24 0 -46 4 -49 9 -3 5 -33 12 -66 16 -33 4 -63 11 -66 16 -3 5 -29 9 -58 9
-29 0 -56 3 -60 8 -11 11 -150 33 -241 39 -44 2 -84 9 -90 14 -5 5 -62 9 -126
9 -95 0 -118 3 -123 15 -5 13 -76 15 -556 15 -480 0 -551 -2 -556 -15z m-782
-3027 l27 -28 -24 -6 c-14 -3 -25 -10 -25 -15 0 -5 -15 -9 -34 -9 -19 0 -38
-4 -41 -10 -3 -5 -21 -10 -39 -10 -18 0 -41 -7 -52 -15 -10 -8 -31 -15 -46
-15 -15 0 -29 -4 -32 -9 -3 -5 -22 -12 -41 -15 -19 -4 -35 -11 -35 -16 0 -6
-10 -10 -22 -10 -32 0 -102 -26 -106 -39 -2 -6 -17 -11 -33 -11 -16 0 -37 -4
-47 -8 -9 -5 -32 -16 -50 -25 -19 -9 -42 -17 -53 -17 -10 0 -19 -4 -19 -10 0
-5 -9 -10 -21 -10 -11 0 -33 -6 -47 -14 -15 -7 -40 -19 -57 -26 -16 -7 -43
-18 -60 -25 -16 -7 -49 -21 -72 -31 -24 -10 -43 -21 -43 -26 0 -4 -11 -8 -25
-8 -14 0 -25 -4 -25 -10 0 -5 -9 -10 -20 -10 -11 0 -23 -7 -26 -15 -4 -8 -17
-15 -30 -15 -13 0 -24 -4 -24 -10 0 -5 -9 -10 -20 -10 -11 0 -23 -7 -26 -15
-4 -8 -17 -15 -30 -15 -13 0 -24 -4 -24 -10 0 -5 -9 -10 -20 -10 -11 0 -23 -7
-26 -15 -4 -8 -17 -15 -30 -15 -13 0 -24 -4 -24 -10 0 -5 -9 -10 -20 -10 -11
0 -23 -7 -26 -15 -4 -8 -12 -15 -20 -15 -8 0 -32 -11 -54 -25 -22 -14 -44 -25
-50 -25 -5 0 -10 -4 -10 -9 0 -5 -11 -12 -25 -15 -14 -4 -25 -11 -25 -16 0 -6
-6 -10 -14 -10 -7 0 -25 -11 -40 -25 -15 -14 -34 -25 -43 -25 -9 0 -26 -11
-39 -25 -13 -14 -29 -25 -36 -25 -18 -1 -48 -25 -48 -39 0 -6 -10 -11 -21 -11
-12 0 -32 -11 -45 -25 -13 -14 -27 -25 -32 -25 -5 0 -21 -11 -36 -25 -15 -14
-29 -25 -32 -25 -5 0 -20 -12 -49 -37 -7 -7 -18 -13 -24 -13 -6 0 -11 -16 -11
-35 0 -38 22 -57 43 -36 6 6 19 11 29 11 10 0 21 7 24 15 4 8 14 15 24 15 10
0 40 11 67 24 26 13 67 32 91 42 23 10 42 21 42 26 0 4 9 8 20 8 11 0 28 4 38
9 19 9 71 32 117 51 17 6 43 18 58 26 16 8 37 14 48 14 10 0 19 5 19 10 0 6
11 10 24 10 14 0 31 7 40 15 8 8 26 15 40 15 14 0 26 5 26 10 0 6 14 10 30 10
18 0 33 6 36 15 4 9 19 15 39 15 19 0 36 4 39 9 3 5 22 12 41 15 19 4 35 11
35 16 0 6 13 10 29 10 17 0 32 4 35 9 3 4 24 11 46 15 22 3 40 11 40 16 0 6
15 10 34 10 19 0 38 5 41 10 3 6 20 10 36 10 17 0 32 6 35 15 4 10 20 15 44
15 22 0 42 5 45 10 3 6 21 10 40 10 18 0 40 7 49 15 8 8 32 15 55 15 22 0 42
4 45 9 3 4 27 11 53 14 26 3 49 10 51 16 2 6 23 11 47 11 24 0 46 4 49 9 3 5
31 11 62 13 31 3 59 10 62 15 4 6 30 13 57 16 131 15 190 26 193 36 2 7 31 11
72 11 38 0 72 5 75 10 3 6 33 10 66 10 33 0 70 6 82 12 22 13 111 22 349 36
79 4 132 12 140 20 17 17 904 18 910 0 3 -8 49 -15 144 -20 76 -5 177 -11 224
-14 47 -3 99 -11 117 -19 17 -8 58 -15 91 -15 34 0 64 -4 67 -10 3 -5 37 -10
75 -10 43 0 70 -4 72 -12 2 -6 32 -13 69 -16 35 -2 68 -8 73 -13 6 -5 31 -9
57 -9 27 0 49 -5 51 -12 2 -6 30 -13 61 -16 32 -2 60 -8 63 -13 3 -5 25 -9 49
-9 24 0 45 -5 47 -11 2 -6 25 -13 51 -16 26 -3 50 -10 53 -14 3 -5 25 -9 49
-9 24 0 45 -5 47 -11 4 -11 60 -26 133 -36 22 -3 44 -12 48 -19 4 -8 21 -14
37 -14 16 0 32 -4 35 -10 3 -5 21 -10 38 -10 18 0 41 -7 51 -15 11 -8 30 -15
43 -15 13 0 23 -4 23 -10 0 -5 16 -10 35 -10 19 0 35 -4 35 -10 0 -5 16 -12
35 -16 19 -3 38 -10 41 -15 3 -5 19 -9 35 -9 17 0 37 -7 45 -15 9 -8 26 -15
40 -15 13 0 24 -4 24 -10 0 -5 12 -10 26 -10 14 0 32 -7 40 -15 9 -8 26 -15
40 -15 13 0 24 -4 24 -10 0 -5 9 -10 19 -10 11 0 32 -6 48 -14 15 -8 42 -20
58 -26 17 -7 42 -19 57 -26 14 -8 36 -14 47 -14 12 0 21 -4 21 -10 0 -5 11
-10 25 -10 14 0 25 -4 25 -8 0 -5 19 -16 43 -26 23 -9 54 -24 69 -32 14 -8 33
-14 42 -14 9 0 16 -4 16 -10 0 -5 11 -10 24 -10 13 0 26 -7 30 -15 3 -8 14
-15 24 -15 10 0 23 -5 29 -11 21 -21 43 -2 43 36 0 19 -5 35 -10 35 -10 0 -22
8 -55 38 -7 6 -16 12 -19 12 -3 0 -17 11 -32 25 -15 14 -31 25 -36 25 -5 0
-19 11 -32 25 -13 14 -33 25 -45 25 -11 0 -21 6 -21 14 0 7 -15 21 -32 29 -18
9 -43 25 -55 36 -12 12 -29 21 -37 21 -8 0 -27 11 -42 25 -15 14 -33 25 -40
25 -8 0 -14 4 -14 10 0 5 -11 12 -25 16 -14 3 -25 9 -25 13 0 3 -18 15 -40 25
-22 11 -40 23 -40 28 0 4 -11 8 -24 8 -13 0 -26 7 -30 15 -3 8 -15 15 -26 15
-11 0 -20 5 -20 10 0 6 -11 10 -24 10 -13 0 -26 7 -30 15 -3 8 -15 15 -26 15
-11 0 -20 5 -20 10 0 6 -11 10 -24 10 -13 0 -26 7 -30 15 -3 8 -15 15 -26 15
-11 0 -20 5 -20 10 0 6 -11 10 -24 10 -13 0 -26 7 -30 15 -3 8 -15 15 -26 15
-11 0 -20 5 -20 10 0 6 -11 10 -25 10 -14 0 -25 4 -25 8 0 10 -71 42 -93 42
-10 0 -17 4 -17 9 0 5 -10 12 -22 16 -28 8 -64 23 -100 41 -14 8 -36 14 -47
14 -12 0 -21 5 -21 10 0 6 -9 10 -19 10 -11 0 -34 8 -53 17 -18 9 -41 20 -50
25 -10 4 -31 8 -47 8 -16 0 -31 6 -35 15 -3 8 -14 15 -25 15 -11 0 -23 5 -26
10 -3 6 -18 10 -33 10 -15 0 -36 7 -46 15 -11 8 -30 15 -42 15 -13 0 -26 5
-29 10 -3 6 -18 10 -33 10 -15 0 -36 7 -46 15 -11 8 -34 15 -52 15 -18 0 -36
5 -39 10 -3 6 -22 10 -41 10 -19 0 -34 4 -34 10 0 5 -11 12 -24 16 l-24 6 30
30 29 30 157 -1 c91 -1 158 -6 160 -11 2 -6 38 -10 80 -10 52 -1 83 -5 96 -15
12 -9 42 -15 73 -15 29 0 53 -4 53 -10 0 -5 21 -10 48 -10 26 0 56 -7 66 -15
11 -8 37 -15 57 -15 21 0 41 -4 44 -10 3 -5 24 -10 45 -10 21 0 40 -5 42 -11
3 -10 49 -23 125 -36 18 -3 38 -11 44 -19 6 -8 27 -14 45 -14 19 0 34 -4 34
-10 0 -5 9 -10 19 -10 11 0 34 -8 53 -17 62 -31 68 -33 92 -33 13 0 29 -7 36
-15 7 -8 21 -15 31 -15 11 0 19 -4 19 -10 0 -5 11 -10 25 -10 14 0 25 -4 25
-10 0 -5 16 -12 35 -16 19 -3 35 -10 35 -15 0 -5 11 -9 24 -9 13 0 26 -7 30
-15 3 -8 15 -15 26 -15 11 0 20 -4 20 -10 0 -5 11 -10 24 -10 13 0 26 -7 30
-15 3 -8 14 -15 25 -15 11 0 23 -4 26 -10 3 -5 15 -10 26 -10 10 0 19 -4 19
-9 0 -5 29 -24 65 -42 36 -18 65 -36 65 -41 0 -4 11 -8 25 -8 14 0 25 -5 25
-10 0 -6 16 -18 35 -27 19 -9 35 -20 35 -25 0 -4 6 -8 14 -8 8 0 21 -6 28 -13
7 -6 30 -21 51 -32 20 -11 37 -22 37 -26 0 -3 16 -14 35 -25 19 -10 35 -22 35
-26 0 -5 7 -8 15 -8 8 0 15 -4 15 -9 0 -5 10 -13 22 -17 27 -8 47 -32 48 -56
0 -10 7 -18 15 -18 9 0 15 -9 15 -25 0 -14 5 -25 10 -25 6 0 10 -9 10 -20 0
-11 7 -23 15 -26 8 -4 15 -12 15 -19 0 -16 29 -73 41 -80 5 -4 9 -15 9 -26 0
-10 5 -19 10 -19 6 0 10 -8 10 -19 0 -10 7 -24 15 -31 8 -7 15 -21 15 -31 0
-11 5 -19 10 -19 6 0 10 -8 10 -19 0 -10 7 -24 15 -31 8 -7 15 -21 15 -31 0
-10 5 -21 10 -24 6 -3 10 -15 10 -26 0 -11 7 -22 15 -25 8 -4 15 -17 15 -30 0
-13 5 -24 10 -24 6 0 10 -11 10 -25 0 -16 6 -25 15 -25 8 0 15 -8 15 -17 0
-28 27 -97 39 -101 6 -2 11 -14 11 -27 0 -13 5 -27 10 -30 6 -3 10 -15 10 -25
0 -10 7 -25 15 -34 8 -8 15 -24 15 -35 0 -11 5 -23 10 -26 6 -3 10 -15 10 -26
0 -11 7 -22 15 -25 9 -4 15 -19 15 -40 0 -19 5 -34 10 -34 6 0 10 -11 10 -24
0 -13 7 -26 15 -30 9 -3 15 -18 15 -35 0 -16 5 -33 10 -36 6 -3 10 -17 10 -30
0 -12 7 -25 15 -29 9 -3 15 -18 15 -36 0 -16 5 -30 10 -30 6 0 10 -13 10 -29
0 -16 7 -34 15 -41 8 -7 15 -25 15 -41 0 -15 5 -31 10 -34 6 -3 10 -17 10 -29
0 -13 7 -29 15 -36 8 -7 15 -25 15 -41 0 -16 5 -29 10 -29 6 0 10 -15 10 -34
0 -21 6 -36 15 -40 9 -3 15 -19 15 -41 0 -19 5 -35 10 -35 6 0 10 -15 10 -34
0 -19 7 -41 15 -50 8 -8 15 -31 15 -50 0 -20 5 -36 10 -36 6 0 10 -16 10 -35
0 -22 6 -38 15 -41 9 -4 15 -19 15 -39 0 -19 5 -37 10 -40 6 -3 10 -24 10 -46
0 -26 5 -42 15 -45 10 -4 15 -20 15 -44 0 -22 5 -42 10 -45 6 -3 10 -24 10
-46 0 -26 5 -42 15 -45 11 -4 15 -21 15 -55 0 -27 5 -49 10 -49 6 0 10 -20 10
-45 0 -27 5 -47 14 -52 8 -4 17 -32 20 -60 3 -29 9 -75 12 -103 3 -27 12 -54
20 -61 9 -7 14 -31 14 -65 0 -29 5 -56 10 -59 6 -3 10 -31 10 -61 0 -39 4 -56
15 -60 11 -5 15 -23 15 -74 0 -38 5 -72 10 -75 6 -3 10 -38 10 -76 0 -53 4
-71 15 -75 12 -5 15 -25 15 -90 0 -49 4 -84 10 -84 6 0 10 -36 10 -89 0 -66 4
-93 15 -105 12 -11 15 -42 15 -140 0 -77 4 -126 10 -126 6 0 10 -86 10 -238 0
-194 3 -242 15 -258 16 -21 21 -124 6 -124 -5 0 -50 -39 -98 -88 -49 -48 -109
-103 -132 -122 -24 -19 -70 -61 -103 -92 -33 -32 -63 -58 -67 -58 -3 0 -22
-14 -41 -30 -19 -16 -38 -30 -42 -30 -5 0 -8 -7 -8 -15 0 -8 -8 -15 -18 -15
-10 0 -34 -15 -54 -34 -20 -19 -45 -37 -57 -41 -12 -3 -21 -11 -21 -16 0 -5
-7 -9 -15 -9 -8 0 -15 -4 -15 -10 0 -5 -6 -10 -14 -10 -8 0 -21 -6 -28 -14 -8
-7 -28 -21 -46 -30 -18 -9 -32 -21 -32 -26 0 -6 -11 -10 -25 -10 -14 0 -25 -4
-25 -10 0 -5 -6 -10 -14 -10 -8 0 -21 -6 -28 -12 -7 -7 -30 -21 -50 -30 -21
-10 -38 -22 -38 -28 0 -5 -11 -10 -25 -10 -14 0 -25 -4 -25 -10 0 -5 -8 -10
-19 -10 -10 0 -24 -7 -31 -15 -7 -8 -19 -15 -28 -15 -21 0 -92 -32 -92 -42 0
-4 -11 -8 -25 -8 -14 0 -25 -4 -25 -10 0 -5 -10 -10 -23 -10 -13 0 -32 -7 -43
-15 -10 -8 -29 -15 -41 -15 -12 0 -25 -4 -28 -10 -3 -5 -17 -10 -29 -10 -13 0
-29 -7 -36 -15 -7 -8 -27 -15 -46 -15 -18 0 -36 -5 -39 -10 -3 -5 -18 -10 -33
-10 -15 0 -36 -6 -47 -14 -11 -7 -36 -16 -55 -19 -100 -16 -145 -28 -148 -37
-2 -5 -28 -10 -57 -10 -30 0 -57 -5 -60 -10 -3 -5 -30 -10 -58 -10 -29 0 -65
-7 -81 -15 -18 -10 -57 -15 -112 -15 -45 0 -86 -4 -89 -10 -4 -6 -74 -10 -176
-10 l-170 0 -27 28 c-15 15 -40 46 -57 67 -16 22 -44 55 -62 74 -18 19 -33 38
-33 43 0 4 -7 8 -15 8 -8 0 -15 7 -15 15 0 8 -4 15 -10 15 -5 0 -10 7 -10 15
0 9 -7 18 -15 21 -8 4 -15 10 -15 15 0 5 -22 33 -50 61 -27 28 -50 57 -50 65
0 7 -4 13 -10 13 -5 0 -10 7 -10 15 0 8 -7 15 -15 15 -8 0 -15 7 -15 15 0 8
-4 15 -10 15 -5 0 -10 7 -10 15 0 9 -7 18 -15 21 -8 4 -15 10 -15 16 0 5 -7
16 -15 24 -23 23 -18 34 14 34 16 0 36 7 45 15 8 8 28 15 45 15 16 0 33 4 36
10 3 5 17 10 30 10 13 0 30 7 39 15 8 8 20 15 26 15 23 0 110 33 110 41 0 5
11 9 25 9 14 0 25 5 25 10 0 6 8 10 18 10 10 0 27 7 38 15 10 8 29 15 42 15
12 0 22 4 22 9 0 5 11 12 25 15 14 4 25 11 25 16 0 6 11 10 25 10 14 0 25 4
25 9 0 5 11 12 25 15 14 4 25 11 25 16 0 6 8 10 19 10 10 0 30 11 45 25 15 14
36 25 47 25 10 0 19 3 19 8 0 4 16 16 35 26 19 11 35 22 35 26 0 5 11 11 25
14 14 4 25 11 25 16 0 6 7 10 15 10 8 0 15 4 15 9 0 5 9 12 19 16 10 3 35 21
56 40 20 19 43 35 50 35 7 0 22 11 33 25 11 14 23 25 27 25 10 0 35 27 35 39
0 6 6 11 14 11 22 0 236 218 236 241 0 5 7 9 16 9 12 0 14 9 12 38 -2 30 -7
38 -25 40 -13 2 -23 -1 -23 -7 0 -6 -6 -11 -14 -11 -8 0 -21 -6 -28 -13 -7 -6
-30 -21 -50 -32 -21 -11 -38 -23 -38 -27 0 -5 -7 -8 -15 -8 -9 0 -41 -16 -71
-35 -30 -19 -59 -35 -65 -35 -5 0 -12 -7 -15 -15 -4 -8 -17 -15 -30 -15 -13 0
-24 -4 -24 -9 0 -5 -11 -12 -25 -15 -14 -4 -25 -11 -25 -16 0 -6 -6 -10 -14
-10 -17 0 -80 -32 -84 -42 -2 -5 -10 -8 -17 -8 -16 0 -79 -32 -83 -42 -2 -5
-10 -8 -17 -8 -16 0 -79 -32 -83 -42 -2 -5 -15 -8 -28 -8 -13 0 -24 -4 -24 -9
0 -5 -11 -12 -25 -15 -14 -4 -25 -11 -25 -16 0 -6 -11 -10 -25 -10 -14 0 -25
-4 -25 -10 0 -5 -9 -10 -21 -10 -11 0 -35 -7 -52 -16 -58 -30 -67 -34 -81 -34
-7 0 -19 -7 -26 -15 -7 -8 -25 -15 -41 -15 -16 0 -29 -4 -29 -9 0 -5 -16 -12
-35 -15 -19 -4 -35 -11 -35 -16 0 -6 -11 -10 -24 -10 -14 0 -27 -4 -30 -9 -3
-5 -22 -12 -41 -15 -19 -4 -35 -11 -35 -16 0 -6 -15 -10 -34 -10 -19 0 -38 -4
-41 -10 -3 -5 -17 -10 -30 -10 -13 0 -30 -7 -39 -15 -8 -8 -31 -15 -50 -15
-20 0 -36 -4 -36 -10 0 -5 -15 -10 -33 -10 -18 0 -42 -7 -53 -15 -10 -8 -33
-15 -51 -15 -17 0 -35 -4 -38 -10 -3 -5 -24 -10 -46 -10 -26 0 -42 -5 -45 -15
-5 -11 -21 -15 -59 -15 -30 0 -56 -4 -59 -9 -3 -4 -29 -11 -58 -13 -29 -3 -54
-11 -56 -17 -2 -7 -30 -11 -73 -11 -39 0 -69 -4 -69 -10 0 -6 -27 -10 -61 -10
-34 0 -75 -7 -92 -15 -34 -15 -86 -19 -425 -33 -134 -6 -218 -14 -225 -21 -14
-14 -153 -15 -162 -1 -8 13 -202 13 -210 0 -9 -14 -148 -13 -162 1 -7 7 -91
15 -225 21 -360 15 -412 19 -420 31 -4 6 -40 13 -82 15 -42 2 -76 8 -76 13 0
5 -28 9 -62 9 -40 1 -70 6 -82 15 -11 8 -39 15 -62 15 -24 0 -46 5 -49 10 -3
6 -30 10 -60 10 -38 0 -54 4 -59 15 -3 10 -19 15 -45 15 -22 0 -43 4 -46 10
-3 5 -21 10 -38 10 -18 0 -41 7 -51 15 -11 8 -35 15 -53 15 -18 0 -33 5 -33
10 0 6 -16 10 -36 10 -19 0 -42 7 -50 15 -9 8 -26 15 -39 15 -13 0 -27 5 -30
10 -3 6 -20 10 -36 10 -17 0 -37 7 -45 15 -9 8 -26 15 -39 15 -13 0 -27 5 -30
10 -3 6 -17 10 -31 10 -13 0 -24 4 -24 10 0 5 -16 12 -35 16 -19 3 -35 10 -35
15 0 5 -13 9 -29 9 -16 0 -34 7 -41 15 -7 8 -19 15 -26 15 -14 0 -23 4 -81 34
-17 9 -41 16 -52 16 -12 0 -21 5 -21 10 0 6 -11 10 -25 10 -14 0 -25 4 -25 10
0 5 -11 12 -25 16 -14 3 -25 10 -25 15 0 5 -11 9 -25 9 -14 0 -25 4 -25 9 0 4
-21 16 -47 26 -27 10 -50 21 -53 24 -9 11 -71 41 -85 41 -7 0 -15 3 -17 8 -4
10 -67 42 -84 42 -8 0 -14 4 -14 10 0 5 -11 12 -25 16 -14 3 -25 10 -25 15 0
5 -11 9 -25 9 -14 0 -25 4 -25 10 0 5 -17 17 -37 27 -21 9 -40 20 -43 23 -12
14 -61 40 -75 40 -8 0 -15 5 -15 10 0 6 -17 18 -37 28 -21 9 -44 23 -51 29 -7
7 -20 13 -28 13 -8 0 -14 5 -14 11 0 6 -10 9 -22 7 -19 -2 -24 -10 -26 -40 -2
-29 0 -38 12 -38 9 0 16 -4 16 -9 0 -22 215 -241 236 -241 8 0 14 -5 14 -11 0
-12 25 -39 35 -39 4 0 16 -11 27 -25 11 -14 26 -25 33 -25 7 0 30 -16 50 -35
21 -19 46 -37 56 -40 10 -4 19 -11 19 -16 0 -5 7 -9 15 -9 8 0 15 -4 15 -10 0
-5 11 -12 25 -16 14 -3 25 -9 25 -14 0 -4 16 -15 35 -26 19 -10 35 -22 35 -26
0 -5 9 -8 19 -8 11 0 32 -11 47 -25 15 -14 35 -25 45 -25 11 0 19 -4 19 -10 0
-5 11 -12 25 -16 14 -3 25 -10 25 -15 0 -5 11 -9 25 -9 14 0 25 -4 25 -10 0
-5 11 -12 25 -16 14 -3 25 -10 25 -15 0 -5 11 -9 25 -9 14 0 25 -4 25 -10 0
-5 16 -12 35 -16 19 -3 35 -10 35 -15 0 -5 9 -9 21 -9 11 0 27 -7 35 -15 9 -8
26 -15 39 -15 13 0 27 -4 30 -10 3 -5 15 -10 26 -10 11 0 27 -7 35 -15 9 -8
26 -15 39 -15 13 0 27 -4 30 -10 3 -5 20 -10 36 -10 17 0 37 -7 45 -15 9 -8
29 -15 45 -15 32 0 37 -11 14 -34 -8 -8 -15 -19 -15 -24 0 -6 -7 -12 -15 -16
-8 -3 -15 -12 -15 -21 0 -8 -4 -15 -10 -15 -5 0 -10 -5 -10 -10 0 -6 -11 -21
-25 -34 -14 -13 -25 -28 -25 -33 0 -5 -22 -33 -50 -61 -27 -28 -50 -56 -50
-61 0 -5 -7 -11 -15 -15 -8 -3 -15 -12 -15 -21 0 -8 -4 -15 -10 -15 -5 0 -10
-7 -10 -15 0 -8 -7 -15 -15 -15 -8 0 -15 -4 -15 -8 0 -5 -16 -25 -35 -45 -19
-20 -35 -41 -35 -47 0 -5 -5 -10 -10 -10 -6 0 -14 -8 -17 -17 -4 -9 -24 -34
-45 -55 l-38 -38 -169 0 c-103 0 -172 4 -176 10 -3 6 -44 10 -89 10 -55 0 -94
5 -112 15 -16 8 -52 15 -81 15 -28 0 -55 4 -58 10 -3 5 -28 10 -54 10 -26 0
-52 5 -59 12 -6 6 -35 15 -64 20 -29 5 -69 11 -88 15 -19 3 -44 12 -55 19 -11
8 -32 14 -47 14 -15 0 -30 5 -33 10 -3 6 -21 10 -39 10 -19 0 -39 7 -46 15 -7
8 -23 15 -36 15 -12 0 -26 5 -29 10 -3 6 -16 10 -28 10 -12 0 -31 7 -41 15
-11 8 -30 15 -43 15 -13 0 -23 5 -23 10 0 6 -11 10 -24 10 -13 0 -26 4 -28 10
-1 5 -27 18 -56 28 -29 11 -58 24 -65 31 -6 6 -19 11 -29 11 -10 0 -18 5 -18
10 0 6 -9 10 -19 10 -11 0 -23 4 -26 10 -3 5 -23 17 -43 27 -20 9 -43 23 -50
30 -7 7 -20 13 -28 13 -8 0 -14 5 -14 10 0 6 -9 10 -19 10 -11 0 -32 11 -47
25 -15 14 -33 25 -40 25 -8 0 -14 4 -14 10 0 5 -11 12 -25 16 -14 3 -25 10
-25 15 0 5 -7 9 -15 9 -8 0 -15 4 -15 9 0 5 -8 12 -17 15 -10 3 -36 21 -58 41
-22 19 -48 35 -57 35 -10 0 -18 7 -18 15 0 8 -3 15 -7 15 -5 0 -21 11 -37 25
-16 14 -32 25 -36 25 -4 0 -36 28 -73 63 -36 34 -90 82 -118 107 -29 25 -88
80 -131 123 -43 42 -83 77 -88 77 -15 0 -12 104 3 118 9 10 13 78 15 255 2
133 8 246 13 252 5 5 9 62 9 128 0 92 3 122 15 133 11 12 15 39 15 104 0 49 5
92 10 95 6 3 10 40 10 81 0 54 4 80 15 90 10 11 15 36 15 79 0 35 5 67 10 70
6 3 10 37 10 75 0 51 4 69 15 74 11 4 15 21 15 60 0 30 5 58 10 61 6 3 10 32
10 65 0 42 4 59 15 64 11 4 15 20 15 55 0 27 4 53 10 56 5 3 10 28 10 55 0 33
5 50 15 54 10 4 15 20 15 51 0 25 5 45 10 45 6 0 10 22 10 49 0 34 4 51 15 55
10 3 15 19 15 45 0 22 4 43 10 46 5 3 10 23 10 45 0 24 5 40 15 44 10 3 15 19
15 45 0 22 5 43 10 46 5 3 10 21 10 40 0 20 6 35 15 39 9 3 15 19 15 41 0 19
5 35 10 35 6 0 10 16 10 36 0 19 7 42 15 50 8 9 15 31 15 50 0 19 5 34 10 34
6 0 10 16 10 35 0 22 6 38 15 41 9 4 15 19 15 40 0 19 5 34 10 34 6 0 10 13
10 29 0 16 7 34 15 41 8 7 15 23 15 36 0 12 5 26 10 29 6 3 10 20 10 36 0 17
6 32 15 35 9 4 15 19 15 40 0 19 5 34 10 34 6 0 10 13 10 29 0 16 6 31 15 35
8 3 15 16 15 30 0 14 5 28 10 31 6 3 10 20 10 36 0 17 6 32 15 35 8 4 15 17
15 29 0 13 5 27 10 30 6 3 10 19 10 35 0 15 7 30 15 34 8 3 15 14 15 25 0 11
5 23 10 26 6 3 10 17 10 29 0 13 7 29 15 36 8 7 15 21 15 31 0 10 5 21 10 24
6 3 10 17 10 30 0 13 5 25 11 27 12 4 39 73 39 101 0 9 7 17 15 17 9 0 15 9
15 25 0 14 5 25 10 25 6 0 10 11 10 24 0 13 7 26 15 30 8 3 15 14 15 25 0 11
4 23 10 26 5 3 10 14 10 24 0 10 7 24 15 31 8 7 15 21 15 31 0 11 5 19 10 19
6 0 10 11 10 24 0 13 7 26 15 30 8 3 15 15 15 26 0 11 5 20 10 20 6 0 10 9 10
19 0 11 4 22 9 26 12 7 41 64 41 80 0 7 7 15 15 19 8 3 15 15 15 26 0 11 5 20
10 20 6 0 10 11 10 25 0 16 6 25 15 25 8 0 15 8 15 18 1 24 21 48 48 56 12 4
22 12 22 17 0 5 7 9 15 9 8 0 15 4 15 9 0 5 8 12 18 15 9 3 30 17 46 31 16 14
35 25 43 25 7 0 13 5 13 10 0 6 7 10 15 10 8 0 15 5 15 10 0 6 6 10 14 10 8 0
21 6 28 14 8 7 28 21 46 30 18 9 32 21 32 26 0 6 11 10 25 10 14 0 25 4 25 8
0 5 29 23 65 41 36 18 65 37 65 42 0 5 11 9 25 9 14 0 25 5 25 10 0 6 9 10 20
10 11 0 23 7 26 15 4 8 17 15 30 15 13 0 24 5 24 10 0 6 9 10 20 10 11 0 23 7
26 15 4 8 17 15 30 15 13 0 24 4 24 9 0 5 16 12 35 15 19 4 35 11 35 16 0 6
11 10 25 10 14 0 25 5 25 10 0 6 8 10 19 10 10 0 24 7 31 15 7 8 25 15 41 15
15 0 30 4 33 9 3 5 22 12 41 15 19 4 35 11 35 16 0 6 11 10 25 10 14 0 25 5
25 10 0 6 15 10 34 10 18 0 39 6 45 14 6 8 26 16 44 19 76 13 122 26 125 36 2
6 21 11 42 11 21 0 42 5 45 10 3 6 23 10 44 10 20 0 46 7 57 15 10 8 40 15 67
15 26 0 47 5 47 10 0 6 24 10 53 10 31 0 61 6 73 15 13 10 44 14 97 15 43 0
77 4 77 10 0 9 281 19 310 11 8 -3 27 -17 42 -33z"/>
<path d="M4755 6770 c-3 -5 -46 -10 -96 -10 -53 0 -89 -4 -89 -10 0 -5 -15
-10 -33 -10 -18 0 -42 -7 -53 -15 -10 -8 -29 -15 -41 -15 -13 0 -23 -4 -23
-10 0 -5 -9 -10 -20 -10 -11 0 -23 -7 -26 -15 -4 -8 -12 -15 -19 -15 -17 0
-75 -33 -75 -42 0 -5 -5 -8 -11 -8 -13 0 -199 -186 -199 -200 0 -6 -4 -10 -10
-10 -5 0 -10 -9 -10 -20 0 -11 -7 -20 -15 -20 -8 0 -15 -9 -15 -19 0 -11 -4
-23 -10 -26 -5 -3 -10 -14 -10 -25 0 -10 -7 -20 -15 -24 -8 -3 -15 -17 -15
-31 0 -14 -4 -25 -10 -25 -5 0 -10 -16 -10 -35 0 -22 -6 -38 -15 -41 -10 -4
-15 -21 -15 -54 0 -27 -4 -52 -10 -55 -6 -4 -10 -68 -10 -161 0 -96 4 -154 10
-154 6 0 10 -24 10 -54 0 -35 5 -58 15 -66 8 -7 15 -25 15 -41 0 -15 5 -31 10
-34 6 -3 10 -15 10 -26 0 -11 7 -22 15 -25 8 -4 15 -17 15 -30 0 -13 4 -24 9
-24 5 0 11 -8 15 -17 8 -26 28 -55 54 -80 12 -12 22 -27 22 -34 0 -16 116
-129 132 -129 7 0 21 -11 31 -24 10 -13 33 -30 50 -37 18 -7 38 -19 45 -26 7
-7 20 -13 28 -13 8 0 14 -4 14 -10 0 -5 11 -10 25 -10 14 0 25 -4 25 -10 0 -5
16 -12 35 -16 19 -3 38 -10 41 -15 3 -5 30 -9 60 -9 36 0 61 -5 70 -15 22 -21
232 -22 260 0 11 8 41 15 71 15 28 0 55 5 58 10 3 6 17 10 30 10 13 0 30 7 39
15 8 8 24 15 35 15 12 0 21 5 21 10 0 6 9 10 20 10 11 0 23 7 26 15 4 8 14 15
24 15 9 0 29 11 44 25 15 14 31 25 35 25 13 0 151 135 151 147 0 6 7 13 15 17
8 3 15 12 15 21 0 8 5 15 10 15 6 0 10 7 10 15 0 8 4 15 9 15 11 0 41 56 41
75 0 7 7 15 15 19 8 3 15 17 15 31 0 14 5 25 10 25 6 0 10 15 10 34 0 21 6 36
15 40 10 4 15 20 15 50 0 25 5 48 10 51 6 4 10 73 10 175 0 102 -4 171 -10
175 -5 3 -10 26 -10 50 0 25 -6 50 -15 59 -8 8 -15 26 -15 40 0 14 -4 26 -10
26 -5 0 -10 11 -10 24 0 14 -4 27 -9 31 -13 7 -41 64 -41 82 0 7 -7 13 -15 13
-8 0 -15 9 -15 20 0 11 -4 20 -10 20 -5 0 -10 5 -10 10 0 20 -190 200 -210
200 -11 0 -20 5 -20 11 0 16 -31 38 -52 39 -10 0 -18 4 -18 8 0 12 -73 42
-102 42 -14 0 -28 7 -32 15 -3 9 -18 15 -40 15 -19 0 -38 5 -41 10 -3 6 -46
10 -95 10 -49 0 -92 5 -95 10 -3 6 -12 10 -20 10 -8 0 -17 -4 -20 -10z"/>
<path d="M7825 6770 c-3 -6 -48 -10 -100 -10 -52 0 -97 -4 -100 -10 -3 -5 -20
-10 -36 -10 -17 0 -32 -6 -35 -15 -4 -8 -18 -15 -32 -15 -29 0 -102 -30 -102
-42 0 -4 -9 -8 -19 -8 -10 0 -29 -11 -42 -25 -13 -13 -30 -25 -36 -25 -15 0
-203 -185 -203 -200 0 -5 -4 -10 -10 -10 -5 0 -10 -9 -10 -20 0 -11 -4 -20
-10 -20 -5 0 -19 -20 -30 -44 -11 -25 -24 -48 -30 -51 -5 -3 -10 -17 -10 -31
0 -13 -4 -24 -10 -24 -5 0 -10 -13 -10 -29 0 -16 -6 -31 -15 -35 -11 -4 -15
-20 -15 -55 0 -27 -4 -53 -10 -56 -6 -4 -10 -73 -10 -175 0 -102 4 -171 10
-175 6 -3 10 -26 10 -51 0 -30 5 -46 15 -50 9 -4 15 -19 15 -40 0 -19 5 -34
10 -34 6 0 10 -11 10 -25 0 -14 7 -28 15 -31 8 -4 15 -12 15 -19 0 -19 30 -75
41 -75 5 0 9 -7 9 -15 0 -8 5 -15 10 -15 6 0 10 -7 10 -14 0 -16 153 -176 168
-176 4 0 24 -13 42 -30 18 -16 41 -30 51 -30 9 0 19 -7 23 -15 3 -8 15 -15 26
-15 11 0 20 -4 20 -10 0 -5 9 -10 21 -10 11 0 27 -7 35 -15 9 -8 26 -15 39
-15 13 0 27 -4 30 -10 3 -5 30 -10 58 -10 30 0 60 -7 71 -15 28 -22 238 -21
260 0 9 10 34 15 70 15 30 0 57 4 60 9 3 5 22 12 41 15 19 4 35 11 35 16 0 6
11 10 25 10 14 0 25 4 25 9 0 5 11 12 25 15 14 4 25 11 25 16 0 6 8 10 18 10
10 0 36 16 58 35 21 19 42 35 47 35 12 0 127 116 127 129 0 7 10 22 23 34 25
25 45 54 53 80 4 9 10 17 15 17 5 0 9 8 9 18 0 10 5 23 12 30 13 13 38 79 38
103 0 9 7 22 15 29 10 8 15 31 15 66 0 30 5 54 10 54 6 0 10 58 10 154 0 93
-4 157 -10 161 -5 3 -10 28 -10 55 0 33 -5 50 -15 54 -9 3 -15 19 -15 41 0 19
-4 35 -10 35 -5 0 -10 11 -10 24 0 14 -4 27 -9 31 -13 7 -41 64 -41 82 0 7 -7
13 -15 13 -8 0 -15 9 -15 19 0 20 -200 231 -219 231 -6 0 -11 3 -11 8 0 9 -58
42 -75 42 -7 0 -15 7 -19 15 -3 8 -15 15 -26 15 -11 0 -20 5 -20 10 0 6 -10
10 -22 10 -13 0 -32 7 -42 15 -11 8 -35 15 -53 15 -18 0 -33 5 -33 10 0 6 -37
10 -90 10 -53 0 -90 4 -90 10 0 6 -9 10 -19 10 -11 0 -23 -4 -26 -10z"/>
</g>
</svg>
