<?xml version="1.0" standalone="no"?>
<!DOCTYPE svg PUBLIC "-//W3C//DTD SVG 20010904//EN"
 "http://www.w3.org/TR/2001/REC-SVG-20010904/DTD/svg10.dtd">
<svg version="1.0" xmlns="http://www.w3.org/2000/svg"
 width="172.000000pt" height="175.000000pt" viewBox="0 0 172.000000 175.000000"
 preserveAspectRatio="xMidYMid meet">

<g transform="translate(0.000000,175.000000) scale(0.100000,-0.100000)"
fill="#000000" stroke="none">
<path d="M752 1720 c-321 -45 -586 -266 -694 -580 -32 -93 -33 -99 -33 -265 0
-166 1 -172 33 -265 98 -284 315 -485 604 -561 97 -26 276 -31 373 -10 296 64
536 279 637 571 32 93 33 99 33 265 0 166 -1 172 -33 265 -97 280 -319 489
-598 560 -87 23 -237 32 -322 20z m-145 -395 c31 -22 43 -64 29 -105 -13 -40
-45 -60 -99 -60 -50 0 -97 43 -97 90 0 49 47 90 102 90 24 0 53 -7 65 -15z
m43 -520 l0 -285 -105 0 -105 0 0 285 0 285 105 0 105 0 0 -285z m350 249 l0
-35 33 25 c43 33 115 50 174 41 36 -5 56 -16 84 -44 58 -58 69 -111 69 -333
l0 -188 -100 0 -100 0 0 169 c0 93 -4 181 -10 195 -15 40 -50 58 -89 45 -54
-19 -61 -47 -61 -239 l0 -171 -102 3 -103 3 -3 270 c-1 148 0 275 3 282 3 9
33 13 105 13 l100 0 0 -36z"/>
</g>
</svg>
